<?xml version="1.0" encoding="UTF-8"?><svg xmlns="http://www.w3.org/2000/svg" xmlns:xlink="http://www.w3.org/1999/xlink" fill-opacity="1" color-rendering="auto" color-interpolation="auto" text-rendering="auto" stroke="black" stroke-linecap="square" width="3448" stroke-miterlimit="10" shape-rendering="auto" stroke-opacity="1" fill="black" stroke-dasharray="none" font-weight="normal" stroke-width="1" height="2588" font-family="'Dialog'" font-style="normal" stroke-linejoin="miter" font-size="12px" stroke-dashoffset="0" image-rendering="auto">
  <!--Generated by ySVG 2.5-->
  <defs id="genericDefs"/>
  <g>
    <defs id="defs1">
      <linearGradient x1="93.5605" gradientUnits="userSpaceOnUse" x2="324.3457" y1="-66.5" y2="-36.5" id="linearGradient1" spreadMethod="reflect">
        <stop stop-opacity="1" stop-color="rgb(232,238,247)" offset="0%"/>
        <stop stop-opacity="1" stop-color="rgb(183,201,227)" offset="100%"/>
      </linearGradient>
      <linearGradient x1="47.5771" gradientUnits="userSpaceOnUse" x2="384.3291" y1="-0.2529" y2="87.2529" id="linearGradient2" spreadMethod="reflect">
        <stop stop-opacity="1" stop-color="rgb(232,238,247)" offset="0%"/>
        <stop stop-opacity="1" stop-color="rgb(183,201,227)" offset="100%"/>
      </linearGradient>
      <linearGradient x1="56.583" gradientUnits="userSpaceOnUse" x2="375.3232" y1="133.2988" y2="176.7012" id="linearGradient3" spreadMethod="reflect">
        <stop stop-opacity="1" stop-color="rgb(232,238,247)" offset="0%"/>
        <stop stop-opacity="1" stop-color="rgb(183,201,227)" offset="100%"/>
      </linearGradient>
      <linearGradient x1="38.542" gradientUnits="userSpaceOnUse" x2="393.3643" y1="249" y2="279" id="linearGradient4" spreadMethod="reflect">
        <stop stop-opacity="1" stop-color="rgb(232,238,247)" offset="0%"/>
        <stop stop-opacity="1" stop-color="rgb(183,201,227)" offset="100%"/>
      </linearGradient>
      <linearGradient x1="196.9531" gradientUnits="userSpaceOnUse" x2="234.9531" y1="541.5" y2="571.5" id="linearGradient5" spreadMethod="reflect">
        <stop stop-opacity="1" stop-color="rgb(232,238,247)" offset="0%"/>
        <stop stop-opacity="1" stop-color="rgb(183,201,227)" offset="100%"/>
      </linearGradient>
      <linearGradient x1="80.2725" gradientUnits="userSpaceOnUse" x2="351.6338" y1="441.7988" y2="485.2012" id="linearGradient6" spreadMethod="reflect">
        <stop stop-opacity="1" stop-color="rgb(232,238,247)" offset="0%"/>
        <stop stop-opacity="1" stop-color="rgb(183,201,227)" offset="100%"/>
      </linearGradient>
      <linearGradient x1="19.4756" gradientUnits="userSpaceOnUse" x2="91.5244" y1="327" y2="357" id="linearGradient7" spreadMethod="reflect">
        <stop stop-opacity="1" stop-color="rgb(232,238,247)" offset="0%"/>
        <stop stop-opacity="1" stop-color="rgb(183,201,227)" offset="100%"/>
      </linearGradient>
      <linearGradient x1="125.4668" gradientUnits="userSpaceOnUse" x2="221.5332" y1="327" y2="357" id="linearGradient8" spreadMethod="reflect">
        <stop stop-opacity="1" stop-color="rgb(232,238,247)" offset="0%"/>
        <stop stop-opacity="1" stop-color="rgb(183,201,227)" offset="100%"/>
      </linearGradient>
      <linearGradient x1="274.498" gradientUnits="userSpaceOnUse" x2="308.502" y1="327" y2="357" id="linearGradient9" spreadMethod="reflect">
        <stop stop-opacity="1" stop-color="rgb(232,238,247)" offset="0%"/>
        <stop stop-opacity="1" stop-color="rgb(183,201,227)" offset="100%"/>
      </linearGradient>
      <linearGradient x1="351.4717" gradientUnits="userSpaceOnUse" x2="427.5283" y1="327" y2="357" id="linearGradient10" spreadMethod="reflect">
        <stop stop-opacity="1" stop-color="rgb(232,238,247)" offset="0%"/>
        <stop stop-opacity="1" stop-color="rgb(183,201,227)" offset="100%"/>
      </linearGradient>
      <linearGradient x1="-195.1677" gradientUnits="userSpaceOnUse" x2="-45.0838" y1="285.6965" y2="387.9035" id="linearGradient11" spreadMethod="reflect">
        <stop stop-opacity="1" stop-color="rgb(232,238,247)" offset="0%"/>
        <stop stop-opacity="1" stop-color="rgb(183,201,227)" offset="100%"/>
      </linearGradient>
      <linearGradient x1="477.7803" gradientUnits="userSpaceOnUse" x2="657.2197" y1="365.9482" y2="424.0518" id="linearGradient12" spreadMethod="reflect">
        <stop stop-opacity="1" stop-color="rgb(232,238,247)" offset="0%"/>
        <stop stop-opacity="1" stop-color="rgb(183,201,227)" offset="100%"/>
      </linearGradient>
      <clipPath clipPathUnits="userSpaceOnUse" id="clipPath1">
        <path d="M0 0 L3448 0 L3448 2588 L0 2588 L0 0 Z"/>
      </clipPath>
      <clipPath clipPathUnits="userSpaceOnUse" id="clipPath2">
        <path d="M-200 -71 L662 -71 L662 576 L-200 576 L-200 -71 Z"/>
      </clipPath>
    </defs>
    <g fill="white" text-rendering="geometricPrecision" shape-rendering="geometricPrecision" transform="scale(4,4) translate(200,71)" stroke="white">
      <rect x="-200" width="862" height="647" y="-71" clip-path="url(#clipPath2)" stroke="none"/>
    </g>
    <g fill="url(#linearGradient1)" text-rendering="geometricPrecision" shape-rendering="geometricPrecision" transform="matrix(4,0,0,4,800,284)" stroke="url(#linearGradient1)">
      <ellipse rx="115.3926" ry="15" clip-path="url(#clipPath2)" cx="208.9531" cy="-51.5" stroke="none"/>
    </g>
    <g text-rendering="geometricPrecision" stroke-miterlimit="1.45" shape-rendering="geometricPrecision" transform="matrix(4,0,0,4,800,284)" stroke-linecap="butt">
      <ellipse rx="115.3926" fill="none" ry="15" clip-path="url(#clipPath2)" cx="208.9531" cy="-51.5"/>
      <text x="100.5605" xml:space="preserve" y="-46.7861" clip-path="url(#clipPath2)" font-family="sans-serif" stroke="none">bash build.sh {serviceNames} {--release}</text>
    </g>
    <g fill="url(#linearGradient2)" text-rendering="geometricPrecision" shape-rendering="geometricPrecision" transform="matrix(4,0,0,4,800,284)" stroke="url(#linearGradient2)">
      <rect x="47.5771" width="336.752" height="87.5059" y="-0.2529" clip-path="url(#clipPath2)" stroke="none"/>
    </g>
    <g text-rendering="geometricPrecision" stroke-miterlimit="1.45" shape-rendering="geometricPrecision" transform="matrix(4,0,0,4,800,284)" stroke-linecap="butt">
      <rect fill="none" x="47.5771" width="336.752" height="87.5059" y="-0.2529" clip-path="url(#clipPath2)"/>
      <path fill="none" d="M57.5771 -0.2529 L57.5771 87.2529 M374.3291 -0.2529 L374.3291 87.2529 M57.5771 -0.2529 Z" clip-path="url(#clipPath2)"/>
      <text x="54.5771" xml:space="preserve" y="18.8115" clip-path="url(#clipPath2)" font-family="sans-serif" stroke="none">读取VERSION文件，获得outVersion、innerVersion等配置；</text>
      <text x="117.2842" xml:space="preserve" y="33.5127" clip-path="url(#clipPath2)" font-family="sans-serif" stroke="none">读取RC数字，如果没有则使用RC0；</text>
      <text x="57.2344" xml:space="preserve" y="48.2139" clip-path="url(#clipPath2)" font-family="sans-serif" stroke="none">将outVersion、innerVersion、RC数字组合成version和tag，</text>
      <text x="143.9531" xml:space="preserve" y="62.915" clip-path="url(#clipPath2)" font-family="sans-serif" stroke="none">作为后面调用脚本的入参；</text>
      <text x="57.6123" xml:space="preserve" y="77.6162" clip-path="url(#clipPath2)" font-family="sans-serif" stroke="none">判断是否包含--release参数，如果有则版本号不包含RC数字</text>
    </g>
    <g fill="url(#linearGradient3)" text-rendering="geometricPrecision" shape-rendering="geometricPrecision" transform="matrix(4,0,0,4,800,284)" stroke="url(#linearGradient3)">
      <path d="M66.583 133.2988 L365.3232 133.2988 L375.3232 143.2988 L375.3232 176.7012 L56.583 176.7012 L56.583 143.2988 Z" stroke="none" clip-path="url(#clipPath2)"/>
    </g>
    <g text-rendering="geometricPrecision" stroke-miterlimit="1.45" shape-rendering="geometricPrecision" transform="matrix(4,0,0,4,800,284)" stroke-linecap="butt">
      <path fill="none" d="M66.583 133.2988 L365.3232 133.2988 L375.3232 143.2988 L375.3232 176.7012 L56.583 176.7012 L56.583 143.2988 Z" clip-path="url(#clipPath2)"/>
      <text x="63.583" xml:space="preserve" y="152.3633" clip-path="url(#clipPath2)" font-family="sans-serif" stroke="none">遍历脚本的参数，若参数是base、mongodb、sqlserver等</text>
      <text x="113.2764" xml:space="preserve" y="167.0645" clip-path="url(#clipPath2)" font-family="sans-serif" stroke="none">支持的参数的话，调用对应的build函数</text>
    </g>
    <g fill="url(#linearGradient4)" text-rendering="geometricPrecision" shape-rendering="geometricPrecision" transform="matrix(4,0,0,4,800,284)" stroke="url(#linearGradient4)">
      <path d="M38.542 249 L393.3643 249 L393.3643 279 L38.542 279 Z" stroke="none" clip-path="url(#clipPath2)"/>
    </g>
    <g text-rendering="geometricPrecision" stroke-miterlimit="1.45" shape-rendering="geometricPrecision" transform="matrix(4,0,0,4,800,284)" stroke-linecap="butt">
      <path fill="none" d="M38.542 249 L393.3643 249 L393.3643 279 L38.542 279 Z" clip-path="url(#clipPath2)"/>
      <text x="45.542" xml:space="preserve" y="268.7139" clip-path="url(#clipPath2)" font-family="sans-serif" stroke="none">调用对应的build_base、build_mongodb、build_sqlserver等函数</text>
    </g>
    <g fill="url(#linearGradient5)" text-rendering="geometricPrecision" shape-rendering="geometricPrecision" transform="matrix(4,0,0,4,800,284)" stroke="url(#linearGradient5)">
      <rect x="196.9531" y="541.5" clip-path="url(#clipPath2)" width="38" rx="15" ry="15" height="30" stroke="none"/>
    </g>
    <g text-rendering="geometricPrecision" stroke-miterlimit="1.45" shape-rendering="geometricPrecision" transform="matrix(4,0,0,4,800,284)" stroke-linecap="butt">
      <rect x="196.9531" y="541.5" clip-path="url(#clipPath2)" fill="none" width="38" rx="15" ry="15" height="30"/>
      <text x="203.9531" xml:space="preserve" y="561.2139" clip-path="url(#clipPath2)" font-family="sans-serif" stroke="none">结束</text>
    </g>
    <g fill="url(#linearGradient6)" text-rendering="geometricPrecision" shape-rendering="geometricPrecision" transform="matrix(4,0,0,4,800,284)" stroke="url(#linearGradient6)">
      <path d="M80.2725 441.7988 L351.6338 441.7988 L351.6338 475.2012 L341.6338 485.2012 L90.2725 485.2012 L80.2725 475.2012 Z" stroke="none" clip-path="url(#clipPath2)"/>
    </g>
    <g text-rendering="geometricPrecision" stroke-miterlimit="1.45" shape-rendering="geometricPrecision" transform="matrix(4,0,0,4,800,284)" stroke-linecap="butt">
      <path fill="none" d="M80.2725 441.7988 L351.6338 441.7988 L351.6338 475.2012 L341.6338 485.2012 L90.2725 485.2012 L80.2725 475.2012 Z" clip-path="url(#clipPath2)"/>
      <text x="87.2725" xml:space="preserve" y="460.8633" clip-path="url(#clipPath2)" font-family="sans-serif" stroke="none">编译结束后，将打出来的base或对应服务的zip包</text>
      <text x="101.2559" xml:space="preserve" y="475.5645" clip-path="url(#clipPath2)" font-family="sans-serif" stroke="none">拷贝到package/dist/目录下，以version命名</text>
    </g>
    <g fill="url(#linearGradient7)" text-rendering="geometricPrecision" shape-rendering="geometricPrecision" transform="matrix(4,0,0,4,800,284)" stroke="url(#linearGradient7)">
      <path d="M19.4756 327 L91.5244 327 L91.5244 357 L19.4756 357 Z" stroke="none" clip-path="url(#clipPath2)"/>
    </g>
    <g text-rendering="geometricPrecision" stroke-miterlimit="1.45" shape-rendering="geometricPrecision" transform="matrix(4,0,0,4,800,284)" stroke-linecap="butt">
      <path fill="none" d="M19.4756 327 L91.5244 327 L91.5244 357 L19.4756 357 Z" clip-path="url(#clipPath2)"/>
      <text x="26.4756" xml:space="preserve" y="346.7139" clip-path="url(#clipPath2)" font-family="sans-serif" stroke="none">build_base</text>
    </g>
    <g fill="url(#linearGradient8)" text-rendering="geometricPrecision" shape-rendering="geometricPrecision" transform="matrix(4,0,0,4,800,284)" stroke="url(#linearGradient8)">
      <path d="M125.4668 327 L221.5332 327 L221.5332 357 L125.4668 357 Z" stroke="none" clip-path="url(#clipPath2)"/>
    </g>
    <g text-rendering="geometricPrecision" stroke-miterlimit="1.45" shape-rendering="geometricPrecision" transform="matrix(4,0,0,4,800,284)" stroke-linecap="butt">
      <path fill="none" d="M125.4668 327 L221.5332 327 L221.5332 357 L125.4668 357 Z" clip-path="url(#clipPath2)"/>
      <text x="132.4668" xml:space="preserve" y="346.7139" clip-path="url(#clipPath2)" font-family="sans-serif" stroke="none">build_mongodb</text>
    </g>
    <g fill="url(#linearGradient9)" text-rendering="geometricPrecision" shape-rendering="geometricPrecision" transform="matrix(4,0,0,4,800,284)" stroke="url(#linearGradient9)">
      <path d="M274.498 327 L308.502 327 L308.502 357 L274.498 357 Z" stroke="none" clip-path="url(#clipPath2)"/>
    </g>
    <g text-rendering="geometricPrecision" stroke-miterlimit="1.45" shape-rendering="geometricPrecision" transform="matrix(4,0,0,4,800,284)" stroke-linecap="butt">
      <path fill="none" d="M274.498 327 L308.502 327 L308.502 357 L274.498 357 Z" clip-path="url(#clipPath2)"/>
      <text x="281.498" xml:space="preserve" y="346.7139" clip-path="url(#clipPath2)" font-family="sans-serif" stroke="none">......</text>
    </g>
    <g fill="url(#linearGradient10)" text-rendering="geometricPrecision" shape-rendering="geometricPrecision" transform="matrix(4,0,0,4,800,284)" stroke="url(#linearGradient10)">
      <path d="M351.4717 327 L427.5283 327 L427.5283 357 L351.4717 357 Z" stroke="none" clip-path="url(#clipPath2)"/>
    </g>
    <g text-rendering="geometricPrecision" stroke-miterlimit="1.45" shape-rendering="geometricPrecision" transform="matrix(4,0,0,4,800,284)" stroke-linecap="butt">
      <path fill="none" d="M351.4717 327 L427.5283 327 L427.5283 357 L351.4717 357 Z" clip-path="url(#clipPath2)"/>
      <text x="358.4717" xml:space="preserve" y="346.7139" clip-path="url(#clipPath2)" font-family="sans-serif" stroke="none">build_hotdb</text>
    </g>
    <g fill="url(#linearGradient11)" text-rendering="geometricPrecision" shape-rendering="geometricPrecision" transform="matrix(4,0,0,4,800,284)" stroke="url(#linearGradient11)">
      <rect x="-195.1677" width="150.084" height="102.207" y="285.6965" clip-path="url(#clipPath2)" stroke="none"/>
    </g>
    <g text-rendering="geometricPrecision" stroke-miterlimit="1.45" shape-rendering="geometricPrecision" transform="matrix(4,0,0,4,800,284)" stroke-linecap="butt">
      <path fill="none" d="M-63.8443 285.6965 L-45.0838 285.6965 L-45.0838 387.9035 L-63.8443 387.9035" clip-path="url(#clipPath2)"/>
      <text x="-147.4744" xml:space="preserve" y="304.7609" clip-path="url(#clipPath2)" font-family="sans-serif" stroke="none">build_omc</text>
      <text x="-154.4851" xml:space="preserve" y="319.4621" clip-path="url(#clipPath2)" font-family="sans-serif" stroke="none">build_sahara</text>
      <text x="-152.4871" xml:space="preserve" y="334.1633" clip-path="url(#clipPath2)" font-family="sans-serif" stroke="none">build_bdaas</text>
      <text x="-188.1677" xml:space="preserve" y="348.8644" clip-path="url(#clipPath2)" font-family="sans-serif" stroke="none">build_cluster_deployment</text>
      <text x="-154.4793" xml:space="preserve" y="363.5656" clip-path="url(#clipPath2)" font-family="sans-serif" stroke="none">build_ambari</text>
      <text x="-165.492" xml:space="preserve" y="378.2668" clip-path="url(#clipPath2)" font-family="sans-serif" stroke="none">build_base_helm</text>
    </g>
    <g fill="url(#linearGradient12)" text-rendering="geometricPrecision" shape-rendering="geometricPrecision" transform="matrix(4,0,0,4,800,284)" stroke="url(#linearGradient12)">
      <rect x="477.7803" width="179.4395" height="58.1035" y="365.9482" clip-path="url(#clipPath2)" stroke="none"/>
    </g>
    <g text-rendering="geometricPrecision" stroke-miterlimit="1.45" shape-rendering="geometricPrecision" transform="matrix(4,0,0,4,800,284)" stroke-linecap="butt">
      <path fill="none" d="M500.2102 365.9482 L477.7803 365.9482 L477.7803 424.0518 L500.2102 424.0518" clip-path="url(#clipPath2)"/>
      <text x="487.1328" xml:space="preserve" y="385.0127" clip-path="url(#clipPath2)" font-family="sans-serif" stroke="none">cd dbaas-service-helm-builder</text>
      <text x="518.1377" xml:space="preserve" y="399.7139" clip-path="url(#clipPath2)" font-family="sans-serif" stroke="none">cd {service_name}</text>
      <text x="484.7803" xml:space="preserve" y="414.415" clip-path="url(#clipPath2)" font-family="sans-serif" stroke="none">sh build-helm.sh {version} {tag}</text>
    </g>
    <g text-rendering="geometricPrecision" stroke-miterlimit="1.45" shape-rendering="geometricPrecision" transform="matrix(4,0,0,4,800,284)" stroke-linecap="butt">
      <path fill="none" d="M209.0788 -36.5171 L209.3161 -8.22" clip-path="url(#clipPath2)"/>
    </g>
    <g text-rendering="geometricPrecision" stroke-miterlimit="1.45" shape-rendering="geometricPrecision" transform="matrix(4,0,0,4,800,284)" stroke-linecap="butt">
      <path d="M209.3832 -0.2203 L214.2823 -12.2618 L209.3077 -9.22 L204.2827 -12.1779 Z" stroke="none" clip-path="url(#clipPath2)"/>
      <path fill="none" d="M215.9531 87.2452 L215.9531 125.3304" clip-path="url(#clipPath2)"/>
      <path d="M215.9531 133.3304 L220.9531 121.3304 L215.9531 124.3304 L210.9531 121.3304 Z" clip-path="url(#clipPath2)" stroke="none"/>
      <path fill="none" d="M215.9531 176.6882 L215.9531 241.0359" clip-path="url(#clipPath2)"/>
      <path d="M215.9531 249.0359 L220.9531 237.0359 L215.9531 240.0359 L210.9531 237.0359 Z" clip-path="url(#clipPath2)" stroke="none"/>
      <path fill="none" d="M215.9531 485.1606 L215.9531 533.4867" clip-path="url(#clipPath2)"/>
      <path d="M215.9531 541.4867 L220.9531 529.4867 L215.9531 532.4867 L210.9531 529.4867 Z" clip-path="url(#clipPath2)" stroke="none"/>
      <path fill="none" d="M55.5 278.9678 L55.5 319.0114" clip-path="url(#clipPath2)"/>
      <path d="M55.5 327.0114 L60.5 315.0114 L55.5 318.0114 L50.5 315.0114 Z" clip-path="url(#clipPath2)" stroke="none"/>
      <path fill="none" d="M65.4491 356.9832 L70.2437 364.2038 L86.5054 384.4029 L104.285 402.5974 L123.5827 418.7872 L144.3983 432.9724 L153.5581 437.968" clip-path="url(#clipPath2)"/>
      <path d="M160.5815 441.7985 L152.4405 431.6632 L152.6802 437.4892 L147.6524 440.4424 Z" clip-path="url(#clipPath2)" stroke="none"/>
      <path fill="none" d="M173.5 278.9678 L173.5 319.0114" clip-path="url(#clipPath2)"/>
      <path d="M173.5 327.0114 L178.5 315.0114 L173.5 318.0114 L168.5 315.0114 Z" clip-path="url(#clipPath2)" stroke="none"/>
      <path fill="none" d="M170.4693 357.0052 L169.7966 360.3357 L168.6674 377.7719 L170.1126 394.3086 L174.1321 409.9459 L180.7259 424.6836 L187.8944 435.5037 L187.9616 435.5777" clip-path="url(#clipPath2)"/>
      <path d="M192.9143 441.8603 L189.4118 429.341 L187.3425 434.7924 L181.5586 435.532 Z" clip-path="url(#clipPath2)" stroke="none"/>
      <path fill="none" d="M291.5 278.9678 L291.5 319.0114" clip-path="url(#clipPath2)"/>
      <path d="M291.5 327.0114 L296.5 315.0114 L291.5 318.0114 L286.5 315.0114 Z" clip-path="url(#clipPath2)" stroke="none"/>
      <path fill="none" d="M293.9118 357.0169 L267.1851 396.8088 L239.8469 435.2643" clip-path="url(#clipPath2)"/>
      <path d="M235.2116 441.7845 L246.2397 434.9012 L240.4263 434.4492 L238.0894 429.1071 Z" clip-path="url(#clipPath2)" stroke="none"/>
      <path fill="none" d="M389.5 278.9678 L389.5 319.0114" clip-path="url(#clipPath2)"/>
      <path d="M389.5 327.0114 L394.5 315.0114 L389.5 318.0114 L384.5 315.0114 Z" clip-path="url(#clipPath2)" stroke="none"/>
      <path fill="none" d="M371.4901 356.9928 L348.6536 376.0035 L306.1137 407.588 L261.8802 436.7535 L260.1147 437.7817" clip-path="url(#clipPath2)"/>
      <path d="M253.2016 441.8077 L266.0875 440.0894 L260.9789 437.2784 L261.055 431.448 Z" clip-path="url(#clipPath2)" stroke="none"/>
      <path fill="none" d="M19.4401 336.8 L-45.0614 336.8" clip-path="url(#clipPath2)"/>
      <text x="-27.675" xml:space="preserve" y="311.5139" clip-path="url(#clipPath2)" font-family="sans-serif" stroke="none">base包编译</text>
      <path fill="none" d="M427.5438 342 L521 342 L521 365.9299" clip-path="url(#clipPath2)"/>
      <path fill="none" d="M221.5636 342 L496.5 342 L496.5 365.9388" clip-path="url(#clipPath2)"/>
      <path fill="none" d="M308.4753 342 L549.5 342 L549.5 365.9327" clip-path="url(#clipPath2)"/>
      <text x="393.001" xml:space="preserve" y="376.7139" clip-path="url(#clipPath2)" font-family="sans-serif" stroke="none">各服务的编译</text>
    </g>
  </g>
</svg>
